/* XPM */
static char *End__Idle_[] = {
/* columns rows colors chars-per-pixel */
"32 32 51 1 ",
"  c None",
". c #4C3A2A",
"X c #5B4327",
"o c #514A31",
"O c #785523",
"+ c #615831",
"@ c #7C652A",
"# c #353346",
"$ c #3B3B4D",
"% c #575247",
"& c #424355",
"* c #454558",
"= c #48475B",
"- c #6B6A75",
"; c #9E631A",
": c #A3701D",
"> c #817532",
", c #877D47",
"< c #A88024",
"1 c #A78328",
"2 c #AD8B3E",
"3 c #B19F32",
"4 c #CE911F",
"5 c #D39B1D",
"6 c #D39935",
"7 c #D8AB25",
"8 c #D7AD29",
"9 c #DCBA2C",
"0 c #E1CA33",
"q c #8C865D",
"w c #B7A848",
"e c #BCB05E",
"r c #8E8A7A",
"t c #D9A24B",
"y c #E7D349",
"u c #ECDB5F",
"i c #EEE07C",
"p c #F2E474",
"a c #7C818D",
"s c #908F98",
"d c #9094A0",
"f c #A0A4AE",
"g c #F7EC8A",
"h c #F0E599",
"j c #F9F1A7",
"k c #B9C5CB",
"l c #C4CED4",
"z c #FBF6C5",
"x c #D8E1E4",
"c c #FDFAE2",
"v c #ECF0F2",
/* pixels */
"                                ",
"                                ",
"                                ",
"                                ",
"                                ",
"                                ",
"                                ",
"                                ",
"                                ",
"                                ",
"        X,qqqqqqqqqrrrs-        ",
"     -q@.>144444444662q%,r-     ",
"     zw@.50uuuuuuuuuuuyo>wz     ",
"     i  O7upggggggzzccg>  u     ",
"     u  O7upggggggggccg>  h     ",
"     u  O7uggggggggggjg>  u     ",
"     u  O7ugggggggggggg>  u     ",
"     p+ O7ypppggggggpgp> +p     ",
"     wu7O50yuppggggggu0>yuw     ",
"         :590000000009<         ",
"          XOOOO;;OOOOX          ",
"              ouu%              ",
"             X,ttr-             ",
"             Oyuuu,             ",
"              o48o              ",
"              3gge              ",
"          +,qeuuguerr-          ",
"          577777777777          ",
"        $&ss&&ss&&ss&&ss        ",
"        #=xx==xx==xx==xv        ",
"        addddddddddddddf        ",
"        kl##ll##ll##ll#*        "
};
