/* XPM */
static char *Idle[] = {
/* columns rows colors chars-per-pixel */
"32 27 69 1 ",
"  c None",
". c #211F30",
"X c #262031",
"o c #2C2332",
"O c #302333",
"+ c #3E2736",
"@ c #372A35",
"# c #3C2834",
"$ c #3A3139",
"% c #462A36",
"& c #412C38",
"* c #463239",
"= c #4C363A",
"- c #463A3D",
"; c #503C3E",
": c #632E3E",
"> c #64313F",
", c #733B3E",
"< c #7C3C3E",
"1 c #534342",
"2 c #564B49",
"3 c #584E4C",
"4 c #59504D",
"5 c #883646",
"6 c #8B3A48",
"7 c #874242",
"8 c #8F424C",
"9 c #994145",
"0 c #98494B",
"q c #805047",
"w c #825549",
"e c #8E574A",
"r c #9F514D",
"t c #935A4B",
"y c #A14744",
"u c #A44C46",
"i c #A75148",
"p c #A15D4E",
"a c #AD5C4E",
"s c #B05F4E",
"d c #A05B55",
"f c #AC5F51",
"g c #99604F",
"h c #8E6E57",
"j c #92765E",
"k c #B1614F",
"l c #AA695A",
"z c #B36450",
"x c #B76D55",
"c c #B96E54",
"v c #A77F5F",
"b c #BC7558",
"n c #BF7E5E",
"m c #957E65",
"M c #B47E6F",
"N c #99856D",
"B c #9B8970",
"V c #B28162",
"C c #BC8364",
"Z c #C48661",
"A c #C78C64",
"S c #C8946A",
"D c #CF9E6E",
"F c #D4A777",
"G c #D5AA7A",
"H c #D4AC80",
"J c #DAB584",
"K c #DFBE8D",
"L c #E1C391",
/* pixels */
"                                ",
"                                ",
"      ....................      ",
"     *whhhhhhhhhhNjmBBBBBB2     ",
"     =xlDDDDDDDDDJFGJJJJMH2     ",
"     =a0AAAAAAAAAAAAAAAA0Z;     ",
"     #7ffttpffffffffpttfft*     ",
"     X+66Oo:55555555:oO56%X     ",
"     %ucc@<yyyyyyyyyy<Oycc=     ",
"     =bDD8fccccccccca96cDD1     ",
"     =bDD8fcccxuciusa96cDK3     ",
"     =bDD8fcccczcuyaa96cDL4     ",
"     =bDD8fccccccksxa96cDL4     ",
"     =bDD8fccccccccca96cDL4     ",
"     =bDD8fccccccczxa96cDJ2     ",
"     =bDD8fcccccccaka96cDF1     ",
"     =bDD8fccccccccca96cDK3     ",
"     =bDD8fccccccccca96cDD1     ",
"     =bDD$eccccccccca<@cDD1     ",
"     X&88Oo>66666666>oO68*X     ",
"     *gCCvvVCCCCCCCCVvvCCv-     ",
"     =xdDDDDDDDDDDDDDDDDdS1     ",
"     =arZZZZZZZZZZZZZZZZrn;     ",
"     %,qqqqqqqqqqqqqqqqqqq*     ",
"      ....................      ",
"                                ",
"                                "
};
