/* XPM */
static char *Idle_copy[] = {
/* columns rows colors chars-per-pixel */
"32 32 56 1 ",
"  c None",
". c #211F30",
"X c #332334",
"o c #372534",
"O c #382634",
"+ c #392834",
"@ c #3B2A35",
"# c #3D2D37",
"$ c #3E3038",
"% c #40343A",
"& c #41363B",
"* c #433C41",
"= c #443D42",
"- c #443E43",
"; c #463F44",
": c #494247",
"> c #843346",
", c #994245",
"< c #A14744",
"1 c #A85248",
"2 c #AC5A4D",
"3 c #AE5C4D",
"4 c #B26350",
"5 c #B66952",
"6 c #B96E54",
"7 c #B97056",
"8 c #BA7156",
"9 c #BB7256",
"0 c #BC7558",
"q c #BD7658",
"w c #BD7759",
"e c #BF7B5B",
"r c #C07E5D",
"t c #C17F5D",
"y c #C38460",
"u c #C48661",
"i c #C48665",
"p c #C58862",
"a c #C78C64",
"s c #C88E65",
"d c #C99167",
"f c #CA9268",
"g c #CB9569",
"h c #CB9669",
"j c #CC976F",
"k c #CD9A6C",
"l c #CE9C6D",
"z c #CF9E6E",
"x c #CF9D71",
"c c #D5AA79",
"v c #DBB483",
"b c #DEBD8C",
"n c #E2C593",
"m c #E4C997",
"M c #EACF9E",
"N c #FBDFB1",
/* pixels */
"                                ",
"                                ",
"                                ",
"                                ",
"      ....................      ",
"      &******************:      ",
"    .&zbmmmmmmmmmmmmmmmmMN:.    ",
"    .$exccccccccccccccccvM*.    ",
"    .@6dzzzzzzzzzzzzzzzzcm*.    ",
"    .@6dzzzzzzzzzzzzzzzzcm*.    ",
"    .@6dzzzzzzzzzzzzzzzzcm*.    ",
"    .@6dzzzzzzzzzzzzzzzzcm*.    ",
"    .@6dzzzzzzzzzzzzzzzzcm*.    ",
"    .@68rzzzzzzzzzz8szzzcm*.    ",
"    .@350pzzzzzzzgy6rpzzcm*.    ",
"    .O<466gzzzzzzy6660zzcm*.    ",
"    .O<4666rzzzz6666666dcm*.    ",
"    .O<46660yzgy6666666rgm*.    ",
"    .O<466666gy666666666yn*.    ",
"    .O<46666666666666666ez&.    ",
"    .O<46666666666666666ez&.    ",
"    .O<46666666666666666ez&.    ",
"    .O<46666666666666666ez&.    ",
"    .O<46666666666666666ez&.    ",
"    .o,344444444444444448d&.    ",
"    .o>,<<<<<<<<<<<<<<<<16@.    ",
"      ooOOOOOOOOOOOOOOOO@@      ",
"      ....................      ",
"                                ",
"                                ",
"                                ",
"                                "
};
